<svg width="1288" height="333" viewBox="0 0 1288 333" fill="none" xmlns="http://www.w3.org/2000/svg">
<g filter="url(#filter0_d_1_3)">
<rect x="4" width="1280" height="325" fill="#100146" shape-rendering="crispEdges"/>
<rect x="4" width="1280" height="325" fill="url(#paint0_linear_1_3)" fill-opacity="0.2" shape-rendering="crispEdges"/>
<path d="M467.855 195.03L467.765 202.26H468.545C469.665 199.88 470.695 197.34 471.635 194.64C472.575 191.92 473.045 189.85 473.045 188.43C473.045 187.87 472.935 187.33 472.715 186.81C474.235 185.77 475.635 185.25 476.915 185.25C478.915 185.25 479.915 186.38 479.915 188.64C479.915 189.76 479.605 191.18 478.985 192.9C478.385 194.6 477.485 196.74 476.285 199.32C475.085 201.88 474.445 203.26 474.365 203.46L474.785 205.11C473.065 206.87 470.915 207.75 468.335 207.75C465.755 207.75 464.125 207.28 463.445 206.34C461.765 207.28 459.965 207.75 458.045 207.75C456.125 207.75 454.745 207.47 453.905 206.91C453.065 206.35 452.645 205.41 452.645 204.09L452.675 198.57C452.675 193.99 452.115 190.76 450.995 188.88C450.475 188.02 449.835 187.33 449.075 186.81C450.435 185.77 451.995 185.25 453.755 185.25C455.355 185.25 456.545 185.88 457.325 187.14C458.105 188.38 458.615 189.87 458.855 191.61C459.055 193.19 459.155 195.06 459.155 197.22L459.065 202.26H459.845C460.985 199.78 461.945 196.84 462.725 193.44C462.525 191.52 462.085 189.59 461.405 187.65C462.145 187.07 462.835 186.66 463.475 186.42C464.115 186.16 464.965 186.03 466.025 186.03C468.205 186.03 469.295 187.04 469.295 189.06C469.295 190.26 468.815 192.25 467.855 195.03ZM489.533 207.75C486.793 207.75 484.673 207.04 483.173 205.62C481.693 204.2 480.953 202.28 480.953 199.86C480.953 196.64 482.053 194.03 484.253 192.03C486.473 190.01 489.253 189 492.593 189C494.453 189 495.863 189.42 496.823 190.26C497.783 191.08 498.263 192.17 498.263 193.53C498.263 195.39 497.353 196.94 495.533 198.18C493.733 199.4 490.943 200.02 487.163 200.04C487.223 201.32 487.513 202.33 488.033 203.07C488.553 203.79 489.203 204.15 489.983 204.15C490.763 204.15 491.433 203.89 491.993 203.37C492.573 202.85 492.863 202 492.863 200.82C495.783 200.82 497.243 201.51 497.243 202.89C497.243 204.07 496.523 205.18 495.083 206.22C493.643 207.24 491.793 207.75 489.533 207.75ZM492.083 192.51C491.063 192.51 490.123 193.02 489.263 194.04C488.423 195.06 487.813 196.26 487.433 197.64C489.433 197.48 490.933 197.03 491.933 196.29C492.953 195.53 493.463 194.73 493.463 193.89C493.463 193.49 493.333 193.16 493.073 192.9C492.833 192.64 492.503 192.51 492.083 192.51ZM503.789 188.34L502.109 185.94C504.609 184.48 506.579 183.75 508.019 183.75C508.839 183.75 509.419 183.92 509.759 184.26C510.099 184.58 510.269 185.2 510.269 186.12C510.269 187.02 509.819 189.58 508.919 193.8C508.039 198.02 507.599 200.98 507.599 202.68C507.599 204.38 507.909 205.58 508.529 206.28C507.129 207.26 505.859 207.75 504.719 207.75C503.579 207.75 502.739 207.38 502.199 206.64C501.679 205.88 501.419 204.84 501.419 203.52C501.419 202.2 501.789 199.5 502.529 195.42C503.269 191.34 503.689 188.98 503.789 188.34ZM512.212 199.86C512.212 196.66 513.312 194.05 515.512 192.03C517.712 190.01 520.482 189 523.822 189C525.542 189 526.902 189.33 527.902 189.99C528.902 190.63 529.402 191.44 529.402 192.42C529.402 193.4 529.062 194.15 528.382 194.67C527.722 195.19 526.992 195.45 526.192 195.45C525.412 195.45 524.692 195.24 524.032 194.82C523.392 194.4 522.892 193.79 522.532 192.99C521.272 193.51 520.272 194.43 519.532 195.75C518.812 197.07 518.452 198.39 518.452 199.71C518.452 201.03 518.712 202.1 519.232 202.92C519.752 203.74 520.432 204.15 521.272 204.15C522.112 204.15 522.792 203.87 523.312 203.31C523.852 202.75 524.122 201.92 524.122 200.82C527.042 200.82 528.502 201.51 528.502 202.89C528.502 204.07 527.762 205.18 526.282 206.22C524.802 207.24 522.852 207.75 520.432 207.75C518.012 207.75 516.032 207.03 514.492 205.59C512.972 204.13 512.212 202.22 512.212 199.86ZM546.133 191.28C547.253 191.28 548.213 191.73 549.013 192.63C549.833 193.53 550.243 194.84 550.243 196.56C550.243 198.26 549.943 199.84 549.343 201.3C548.743 202.74 547.953 203.92 546.973 204.84C545.993 205.76 544.883 206.48 543.643 207C542.403 207.5 541.133 207.75 539.833 207.75C537.213 207.75 535.143 207.03 533.623 205.59C532.103 204.15 531.343 202.24 531.343 199.86C531.343 196.64 532.373 194.03 534.433 192.03C536.513 190.01 539.153 189 542.353 189C543.073 189 543.793 189.08 544.513 189.24C544.733 189.9 544.853 190.65 544.873 191.49C545.293 191.35 545.713 191.28 546.133 191.28ZM542.443 195.45C542.443 194.89 542.573 194.26 542.833 193.56C543.113 192.86 543.553 192.3 544.153 191.88C541.513 192.44 539.693 193.51 538.693 195.09C537.833 196.45 537.403 197.85 537.403 199.29C537.403 200.73 537.693 201.89 538.273 202.77C538.873 203.63 539.633 204.06 540.553 204.06C542.593 204.06 544.033 202.73 544.873 200.07C543.253 199.07 542.443 197.53 542.443 195.45ZM572.228 194.34L572.528 194.49C574.668 190.83 577.288 189 580.388 189C582.808 189 584.018 190.21 584.018 192.63C584.018 193.67 583.718 195.43 583.118 197.91C582.538 200.39 582.248 202.26 582.248 203.52C582.248 204.78 582.458 205.7 582.878 206.28C581.818 207.26 580.698 207.75 579.518 207.75C577.218 207.75 576.068 206.51 576.068 204.03C576.068 203.11 576.368 201.55 576.968 199.35C577.568 197.15 577.868 195.72 577.868 195.06C577.868 194.16 577.528 193.71 576.848 193.71C576.288 193.71 575.658 193.96 574.958 194.46C574.278 194.94 573.618 195.6 572.978 196.44C572.358 197.26 571.828 198.31 571.388 199.59C570.968 200.85 570.758 202.14 570.758 203.46C570.758 204.76 570.968 205.7 571.388 206.28C570.328 207.26 569.208 207.75 568.028 207.75C565.728 207.75 564.578 206.51 564.578 204.03C564.578 203.11 564.878 201.55 565.478 199.35C566.078 197.15 566.378 195.72 566.378 195.06C566.378 194.16 566.038 193.71 565.358 193.71C564.798 193.71 564.168 193.96 563.468 194.46C562.788 194.94 562.128 195.6 561.488 196.44C560.868 197.26 560.338 198.31 559.898 199.59C559.478 200.85 559.268 202.14 559.268 203.46C559.268 204.76 559.478 205.7 559.898 206.28C558.838 207.26 557.718 207.75 556.538 207.75C554.238 207.75 553.088 206.51 553.088 204.03C553.088 203.23 553.288 201.68 553.688 199.38C554.108 197.08 554.538 194.98 554.978 193.08L553.418 190.68C555.398 189.56 557.228 189 558.908 189C560.588 189 561.428 189.76 561.428 191.28C561.428 192.28 561.198 193.3 560.738 194.34L561.038 194.49C563.178 190.83 565.798 189 568.898 189C570.018 189 570.898 189.28 571.538 189.84C572.198 190.4 572.528 191.24 572.528 192.36C572.528 192.96 572.428 193.62 572.228 194.34ZM595.294 207.75C592.554 207.75 590.434 207.04 588.934 205.62C587.454 204.2 586.714 202.28 586.714 199.86C586.714 196.64 587.814 194.03 590.014 192.03C592.234 190.01 595.014 189 598.354 189C600.214 189 601.624 189.42 602.584 190.26C603.544 191.08 604.024 192.17 604.024 193.53C604.024 195.39 603.114 196.94 601.294 198.18C599.494 199.4 596.704 200.02 592.924 200.04C592.984 201.32 593.274 202.33 593.794 203.07C594.314 203.79 594.964 204.15 595.744 204.15C596.524 204.15 597.194 203.89 597.754 203.37C598.334 202.85 598.624 202 598.624 200.82C601.544 200.82 603.004 201.51 603.004 202.89C603.004 204.07 602.284 205.18 600.844 206.22C599.404 207.24 597.554 207.75 595.294 207.75ZM597.844 192.51C596.824 192.51 595.884 193.02 595.024 194.04C594.184 195.06 593.574 196.26 593.194 197.64C595.194 197.48 596.694 197.03 597.694 196.29C598.714 195.53 599.224 194.73 599.224 193.89C599.224 193.49 599.094 193.16 598.834 192.9C598.594 192.64 598.264 192.51 597.844 192.51ZM616.085 196.17C615.945 195.61 615.875 195.09 615.875 194.61C615.875 193.63 616.165 192.89 616.745 192.39C617.325 191.89 618.075 191.64 618.995 191.64C618.995 190.6 618.725 189.47 618.185 188.25C619.165 187.53 620.055 186.99 620.855 186.63C621.675 186.25 622.535 186.06 623.435 186.06C624.335 186.06 624.955 186.23 625.295 186.57C625.655 186.89 625.835 187.39 625.835 188.07C625.835 188.75 625.695 189.81 625.415 191.25C626.215 191.13 627.025 190.96 627.845 190.74C627.985 191.16 628.055 191.7 628.055 192.36C628.055 193.02 627.795 193.64 627.275 194.22C626.775 194.78 626.035 195.06 625.055 195.06H624.605C623.885 198.32 623.525 200.83 623.525 202.59C623.525 204.35 623.835 205.58 624.455 206.28C623.335 207.26 622.145 207.75 620.885 207.75C619.625 207.75 618.715 207.38 618.155 206.64C617.615 205.88 617.345 204.71 617.345 203.13C617.345 202.17 617.695 199.65 618.395 195.57C617.595 195.71 616.825 195.91 616.085 196.17ZM644.483 191.28C645.603 191.28 646.563 191.73 647.363 192.63C648.183 193.53 648.593 194.84 648.593 196.56C648.593 198.26 648.293 199.84 647.693 201.3C647.093 202.74 646.303 203.92 645.323 204.84C644.343 205.76 643.233 206.48 641.993 207C640.753 207.5 639.483 207.75 638.183 207.75C635.563 207.75 633.493 207.03 631.973 205.59C630.453 204.15 629.693 202.24 629.693 199.86C629.693 196.64 630.723 194.03 632.783 192.03C634.863 190.01 637.503 189 640.703 189C641.423 189 642.143 189.08 642.863 189.24C643.083 189.9 643.203 190.65 643.223 191.49C643.643 191.35 644.063 191.28 644.483 191.28ZM640.793 195.45C640.793 194.89 640.923 194.26 641.183 193.56C641.463 192.86 641.903 192.3 642.503 191.88C639.863 192.44 638.043 193.51 637.043 195.09C636.183 196.45 635.753 197.85 635.753 199.29C635.753 200.73 636.043 201.89 636.623 202.77C637.223 203.63 637.983 204.06 638.903 204.06C640.943 204.06 642.383 202.73 643.223 200.07C641.603 199.07 640.793 197.53 640.793 195.45ZM679.572 194.34L679.872 194.49C682.012 190.83 684.632 189 687.732 189C690.152 189 691.362 190.21 691.362 192.63C691.362 193.67 691.062 195.43 690.462 197.91C689.882 200.39 689.592 202.26 689.592 203.52C689.592 204.78 689.802 205.7 690.222 206.28C689.162 207.26 688.042 207.75 686.862 207.75C684.562 207.75 683.412 206.51 683.412 204.03C683.412 203.11 683.712 201.55 684.312 199.35C684.912 197.15 685.212 195.72 685.212 195.06C685.212 194.16 684.872 193.71 684.192 193.71C683.632 193.71 683.002 193.96 682.302 194.46C681.622 194.94 680.962 195.6 680.322 196.44C679.702 197.26 679.172 198.31 678.732 199.59C678.312 200.85 678.102 202.14 678.102 203.46C678.102 204.76 678.312 205.7 678.732 206.28C677.672 207.26 676.552 207.75 675.372 207.75C673.072 207.75 671.922 206.51 671.922 204.03C671.922 203.11 672.222 201.55 672.822 199.35C673.422 197.15 673.722 195.72 673.722 195.06C673.722 194.16 673.382 193.71 672.702 193.71C672.142 193.71 671.512 193.96 670.812 194.46C670.132 194.94 669.472 195.6 668.832 196.44C668.212 197.26 667.682 198.31 667.242 199.59C666.822 200.85 666.612 202.14 666.612 203.46C666.612 204.76 666.822 205.7 667.242 206.28C666.182 207.26 665.062 207.75 663.882 207.75C661.582 207.75 660.432 206.51 660.432 204.03C660.432 203.23 660.632 201.68 661.032 199.38C661.452 197.08 661.882 194.98 662.322 193.08L660.762 190.68C662.742 189.56 664.572 189 666.252 189C667.932 189 668.772 189.76 668.772 191.28C668.772 192.28 668.542 193.3 668.082 194.34L668.382 194.49C670.522 190.83 673.142 189 676.242 189C677.362 189 678.242 189.28 678.882 189.84C679.542 190.4 679.872 191.24 679.872 192.36C679.872 192.96 679.772 193.62 679.572 194.34ZM702.668 206.4C701.728 206.74 700.788 206.91 699.848 206.91C698.908 206.91 698.118 206.63 697.478 206.07C696.838 205.51 696.468 204.75 696.368 203.79C696.268 202.83 696.178 201.44 696.098 199.62C696.018 197.78 695.938 196.48 695.858 195.72C695.598 193.18 694.798 191.37 693.458 190.29C694.398 189.43 695.578 189 696.998 189C697.778 189 698.458 189.21 699.038 189.63C699.618 190.03 700.078 190.57 700.418 191.25C700.778 191.91 701.068 192.77 701.288 193.83C701.628 195.59 701.798 197.97 701.798 200.97C701.798 201.71 701.768 202.58 701.708 203.58H703.448C705.508 198.02 706.538 194.23 706.538 192.21C706.538 191.53 706.388 190.89 706.088 190.29C707.488 189.43 708.708 189 709.748 189C711.688 189 712.658 190.12 712.658 192.36C712.658 194.14 711.838 197.27 710.198 201.75C709.898 202.57 709.728 203.05 709.688 203.19C707.148 210.43 703.538 214.05 698.858 214.05C697.438 214.05 696.268 213.74 695.348 213.12C694.428 212.52 693.968 211.72 693.968 210.72C693.968 209.74 694.338 208.71 695.078 207.63C696.038 208.99 697.238 209.67 698.678 209.67C699.498 209.67 700.258 209.4 700.958 208.86C701.678 208.32 702.248 207.5 702.668 206.4ZM737.202 201.24L735.672 198.09C737.812 196.67 739.742 195.96 741.462 195.96C742.902 195.96 743.622 196.77 743.622 198.39C743.622 198.85 743.342 200.26 742.782 202.62C742.242 204.96 741.972 206.75 741.972 207.99C741.972 209.23 742.242 210.15 742.782 210.75C741.662 211.57 740.492 211.98 739.272 211.98C738.052 211.98 737.182 211.58 736.662 210.78C736.162 209.98 735.912 208.81 735.912 207.27C734.832 207.59 733.712 207.75 732.552 207.75C729.832 207.75 727.632 206.91 725.952 205.23C724.292 203.55 723.462 201.07 723.462 197.79C723.462 196.39 723.762 194.97 724.362 193.53C724.962 192.07 725.812 190.72 726.912 189.48C728.012 188.24 729.442 187.23 731.202 186.45C732.982 185.65 734.812 185.25 736.692 185.25C738.592 185.25 740.072 185.6 741.132 186.3C742.212 187 742.752 187.97 742.752 189.21C742.752 190.45 742.342 191.42 741.522 192.12C740.722 192.8 739.802 193.14 738.762 193.14C737.722 193.14 736.782 192.92 735.942 192.48C735.122 192.02 734.462 191.37 733.962 190.53C732.882 191.05 731.952 192.07 731.172 193.59C730.392 195.11 730.002 196.7 730.002 198.36C730.002 200.02 730.322 201.27 730.962 202.11C731.622 202.93 732.442 203.34 733.422 203.34C734.842 203.34 736.102 202.64 737.202 201.24ZM755.552 184.26C755.552 185.02 755.152 185.68 754.352 186.24C753.552 186.78 752.642 187.05 751.622 187.05C750.602 187.05 749.792 186.85 749.192 186.45C748.612 186.05 748.322 185.51 748.322 184.83C748.322 183.91 748.752 183.19 749.612 182.67C750.472 182.15 751.382 181.89 752.342 181.89C753.302 181.89 754.072 182.09 754.652 182.49C755.252 182.89 755.552 183.48 755.552 184.26ZM749.702 207.75C748.462 207.75 747.562 207.44 747.002 206.82C746.442 206.2 746.162 205.26 746.162 204C746.162 202.72 746.802 199.31 748.082 193.77L746.402 191.25C748.902 189.75 750.872 189 752.312 189C753.132 189 753.712 189.18 754.052 189.54C754.392 189.88 754.562 190.44 754.562 191.22C754.562 191.52 754.192 193.28 753.452 196.5C752.712 199.72 752.342 202.02 752.342 203.4C752.342 204.78 752.652 205.74 753.272 206.28C752.152 207.26 750.962 207.75 749.702 207.75ZM757.853 196.17C757.713 195.61 757.643 195.09 757.643 194.61C757.643 193.63 757.933 192.89 758.513 192.39C759.093 191.89 759.843 191.64 760.763 191.64C760.763 190.6 760.493 189.47 759.953 188.25C760.933 187.53 761.823 186.99 762.623 186.63C763.443 186.25 764.303 186.06 765.203 186.06C766.103 186.06 766.723 186.23 767.063 186.57C767.423 186.89 767.603 187.39 767.603 188.07C767.603 188.75 767.463 189.81 767.183 191.25C767.983 191.13 768.793 190.96 769.613 190.74C769.753 191.16 769.823 191.7 769.823 192.36C769.823 193.02 769.563 193.64 769.043 194.22C768.543 194.78 767.803 195.06 766.823 195.06H766.373C765.653 198.32 765.293 200.83 765.293 202.59C765.293 204.35 765.603 205.58 766.223 206.28C765.103 207.26 763.913 207.75 762.653 207.75C761.393 207.75 760.483 207.38 759.923 206.64C759.383 205.88 759.113 204.71 759.113 203.13C759.113 202.17 759.463 199.65 760.163 195.57C759.363 195.71 758.593 195.91 757.853 196.17ZM785.14 203.13C785.14 202.29 785.28 200.91 785.56 198.99H778.78C778.52 200.49 778.39 201.52 778.39 202.08C778.39 204.02 778.69 205.47 779.29 206.43C778.09 207.33 776.84 207.78 775.54 207.78C774.24 207.78 773.31 207.41 772.75 206.67C772.19 205.91 771.91 204.79 771.91 203.31C771.91 201.81 772.54 197.58 773.8 190.62L772.21 187.41C774.47 185.95 776.53 185.22 778.39 185.22C779.93 185.22 780.7 186.16 780.7 188.04C780.7 188.6 780.28 191.06 779.44 195.42H786.16C786.24 194.92 786.53 193.32 787.03 190.62L785.44 187.41C787.7 185.95 789.76 185.22 791.62 185.22C793.16 185.22 793.93 186.16 793.93 188.04C793.93 188.66 793.54 190.97 792.76 194.97C792 198.95 791.62 201.32 791.62 202.08C791.62 204.02 791.92 205.47 792.52 206.43C791.32 207.33 790.07 207.78 788.77 207.78C787.47 207.78 786.54 207.41 785.98 206.67C785.42 205.91 785.14 204.73 785.14 203.13ZM801.527 207.75C799.767 207.75 798.537 207.32 797.837 206.46C797.137 205.6 796.787 204.52 796.787 203.22C796.787 201.9 797.007 200.1 797.447 197.82C797.887 195.54 798.107 193.89 798.107 192.87C798.107 191.85 797.897 191.05 797.477 190.47C799.337 189.49 800.907 189 802.187 189C803.007 189 803.597 189.17 803.957 189.51C804.337 189.83 804.527 190.36 804.527 191.1C804.527 191.84 804.217 193.66 803.597 196.56C802.997 199.44 802.697 201.22 802.697 201.9C802.697 202.58 802.887 203.12 803.267 203.52C803.647 203.9 804.147 204.09 804.767 204.09C805.387 204.09 806.047 203.85 806.747 203.37C807.447 202.87 808.017 202.17 808.457 201.27C808.737 199.65 809.287 197.09 810.107 193.59L808.307 191.19C810.327 189.73 812.247 189 814.067 189C814.967 189 815.607 189.17 815.987 189.51C816.387 189.83 816.587 190.33 816.587 191.01C816.587 191.67 816.217 193.58 815.477 196.74C814.757 199.9 814.397 202.15 814.397 203.49C814.397 204.81 814.707 205.74 815.327 206.28C814.207 207.26 813.027 207.75 811.787 207.75C810.567 207.75 809.687 207.48 809.147 206.94C808.607 206.4 808.337 205.69 808.337 204.81L808.037 204.66C807.377 205.62 806.457 206.38 805.277 206.94C804.117 207.48 802.867 207.75 801.527 207.75ZM819.727 201.3C819.727 199.62 820.377 195.3 821.677 188.34L819.997 185.94C821.237 185.2 822.277 184.65 823.117 184.29C823.977 183.93 824.827 183.75 825.667 183.75C826.527 183.75 827.157 183.92 827.557 184.26C827.957 184.6 828.157 185.14 828.157 185.88C828.157 187.16 827.767 189.67 826.987 193.41L827.287 193.56C828.727 190.7 830.827 189.27 833.587 189.27C835.147 189.27 836.367 189.94 837.247 191.28C838.127 192.6 838.567 194.21 838.567 196.11C838.567 197.99 838.187 199.69 837.427 201.21C836.687 202.71 835.717 203.93 834.517 204.87C833.337 205.79 832.047 206.5 830.647 207C829.247 207.5 827.857 207.75 826.477 207.75C824.217 207.75 822.527 207.23 821.407 206.19C820.287 205.15 819.727 203.52 819.727 201.3ZM825.667 204.27C827.887 204.27 829.687 203.51 831.067 201.99C832.467 200.47 833.167 198.77 833.167 196.89C833.167 196.03 832.927 195.25 832.447 194.55C831.987 193.85 831.377 193.5 830.617 193.5C829.857 193.5 829.147 193.81 828.487 194.43C827.847 195.05 827.347 195.79 826.987 196.65C826.647 197.51 826.367 198.48 826.147 199.56C825.827 201.26 825.667 202.83 825.667 204.27Z" fill="#721461"/>
<g filter="url(#filter1_d_1_3)">
<path d="M420.99 155.55C420.99 154.15 421.224 151.85 421.69 148.65H410.39C409.957 151.15 409.74 152.867 409.74 153.8C409.74 157.033 410.24 159.45 411.24 161.05C409.24 162.55 407.157 163.3 404.99 163.3C402.824 163.3 401.274 162.683 400.34 161.45C399.407 160.183 398.94 158.317 398.94 155.85C398.94 153.35 399.99 146.3 402.09 134.7L399.44 129.35C403.207 126.917 406.64 125.7 409.74 125.7C412.307 125.7 413.59 127.267 413.59 130.4C413.59 131.333 412.89 135.433 411.49 142.7H422.69C422.824 141.867 423.307 139.2 424.14 134.7L421.49 129.35C425.257 126.917 428.69 125.7 431.79 125.7C434.357 125.7 435.64 127.267 435.64 130.4C435.64 131.433 434.99 135.283 433.69 141.95C432.424 148.583 431.79 152.533 431.79 153.8C431.79 157.033 432.29 159.45 433.29 161.05C431.29 162.55 429.207 163.3 427.04 163.3C424.874 163.3 423.324 162.683 422.39 161.45C421.457 160.183 420.99 158.217 420.99 155.55ZM453.701 163.25C449.135 163.25 445.601 162.067 443.101 159.7C440.635 157.333 439.401 154.133 439.401 150.1C439.401 144.733 441.235 140.383 444.901 137.05C448.601 133.683 453.235 132 458.801 132C461.901 132 464.251 132.7 465.851 134.1C467.451 135.467 468.251 137.283 468.251 139.55C468.251 142.65 466.735 145.233 463.701 147.3C460.701 149.333 456.051 150.367 449.751 150.4C449.851 152.533 450.335 154.217 451.201 155.45C452.068 156.65 453.151 157.25 454.451 157.25C455.751 157.25 456.868 156.817 457.801 155.95C458.768 155.083 459.251 153.667 459.251 151.7C464.118 151.7 466.551 152.85 466.551 155.15C466.551 157.117 465.351 158.967 462.951 160.7C460.551 162.4 457.468 163.25 453.701 163.25ZM457.951 137.85C456.251 137.85 454.685 138.7 453.251 140.4C451.851 142.1 450.835 144.1 450.201 146.4C453.535 146.133 456.035 145.383 457.701 144.15C459.401 142.883 460.251 141.55 460.251 140.15C460.251 139.483 460.035 138.933 459.601 138.5C459.201 138.067 458.651 137.85 457.951 137.85ZM486.613 161C485.046 161.567 483.479 161.85 481.913 161.85C480.346 161.85 479.029 161.383 477.963 160.45C476.896 159.517 476.279 158.25 476.113 156.65C475.946 155.05 475.796 152.733 475.663 149.7C475.529 146.633 475.396 144.467 475.263 143.2C474.829 138.967 473.496 135.95 471.263 134.15C472.829 132.717 474.796 132 477.163 132C478.463 132 479.596 132.35 480.563 133.05C481.529 133.717 482.296 134.617 482.863 135.75C483.463 136.85 483.946 138.283 484.313 140.05C484.879 142.983 485.163 146.95 485.163 151.95C485.163 153.183 485.113 154.633 485.013 156.3H487.913C491.346 147.033 493.063 140.717 493.063 137.35C493.063 136.217 492.813 135.15 492.313 134.15C494.646 132.717 496.679 132 498.413 132C501.646 132 503.263 133.867 503.263 137.6C503.263 140.567 501.896 145.783 499.163 153.25C498.663 154.617 498.379 155.417 498.313 155.65C494.079 167.717 488.063 173.75 480.263 173.75C477.896 173.75 475.946 173.233 474.413 172.2C472.879 171.2 472.113 169.867 472.113 168.2C472.113 166.567 472.729 164.85 473.963 163.05C475.563 165.317 477.563 166.45 479.963 166.45C481.329 166.45 482.596 166 483.763 165.1C484.963 164.2 485.913 162.833 486.613 161ZM510.678 162.1L507.178 157.6C507.245 156 507.912 154.6 509.178 153.4C510.445 152.2 511.912 151.6 513.578 151.6C515.245 151.6 516.562 152.167 517.528 153.3C518.495 154.433 518.978 155.783 518.978 157.35C518.978 160.817 517.812 163.883 515.478 166.55C513.145 169.25 510.028 171 506.128 171.8L505.378 169.6C506.945 168.867 508.212 167.75 509.178 166.25C510.178 164.783 510.678 163.4 510.678 162.1ZM545.719 163.3C543.552 163.3 542.002 162.683 541.069 161.45C540.136 160.183 539.669 158.317 539.669 155.85C539.669 153.35 540.719 146.3 542.819 134.7L540.169 129.35C543.936 126.917 547.369 125.7 550.469 125.7C553.036 125.7 554.319 127.267 554.319 130.4C554.319 131.433 553.669 135.283 552.369 141.95C551.102 148.583 550.469 152.533 550.469 153.8C550.469 157.033 550.969 159.45 551.969 161.05C549.969 162.55 547.886 163.3 545.719 163.3ZM562.254 139.7C560.287 139.7 559.304 138.867 559.304 137.2C559.304 136.2 559.737 134.467 560.604 132C561.47 129.5 561.904 127.717 561.904 126.65C561.904 125.583 561.787 124.717 561.554 124.05C563.054 123.35 564.587 123 566.154 123C568.12 123 569.104 123.833 569.104 125.5C569.104 126.567 568.67 128.333 567.804 130.8C566.937 133.267 566.504 135.033 566.504 136.1C566.504 137.133 566.62 137.983 566.854 138.65C565.354 139.35 563.82 139.7 562.254 139.7ZM604.76 140.9L605.26 141.15C608.827 135.05 613.194 132 618.36 132C622.394 132 624.41 134.017 624.41 138.05C624.41 139.783 623.91 142.717 622.91 146.85C621.944 150.983 621.46 154.1 621.46 156.2C621.46 158.3 621.81 159.833 622.51 160.8C620.744 162.433 618.877 163.25 616.91 163.25C613.077 163.25 611.16 161.183 611.16 157.05C611.16 155.517 611.66 152.917 612.66 149.25C613.66 145.583 614.16 143.2 614.16 142.1C614.16 140.6 613.594 139.85 612.46 139.85C611.527 139.85 610.477 140.267 609.31 141.1C608.177 141.9 607.077 143 606.01 144.4C604.977 145.767 604.094 147.517 603.36 149.65C602.66 151.75 602.31 153.9 602.31 156.1C602.31 158.267 602.66 159.833 603.36 160.8C601.594 162.433 599.727 163.25 597.76 163.25C593.927 163.25 592.01 161.183 592.01 157.05C592.01 155.517 592.51 152.917 593.51 149.25C594.51 145.583 595.01 143.2 595.01 142.1C595.01 140.6 594.444 139.85 593.31 139.85C592.377 139.85 591.327 140.267 590.16 141.1C589.027 141.9 587.927 143 586.86 144.4C585.827 145.767 584.944 147.517 584.21 149.65C583.51 151.75 583.16 153.9 583.16 156.1C583.16 158.267 583.51 159.833 584.21 160.8C582.444 162.433 580.577 163.25 578.61 163.25C574.777 163.25 572.86 161.183 572.86 157.05C572.86 155.717 573.194 153.133 573.86 149.3C574.56 145.467 575.277 141.967 576.01 138.8L573.41 134.8C576.71 132.933 579.76 132 582.56 132C585.36 132 586.76 133.267 586.76 135.8C586.76 137.467 586.377 139.167 585.61 140.9L586.11 141.15C589.677 135.05 594.044 132 599.21 132C601.077 132 602.544 132.467 603.61 133.4C604.71 134.333 605.26 135.733 605.26 137.6C605.26 138.6 605.094 139.7 604.76 140.9ZM650.644 163.3C648.51 163.3 646.977 162.683 646.044 161.45C645.11 160.183 644.644 158.317 644.644 155.85C644.644 153.35 645.694 146.3 647.794 134.7L645.144 129.35C648.91 126.917 652.344 125.7 655.444 125.7C657.51 125.7 658.744 126.7 659.144 128.7C662.577 126.733 665.944 125.75 669.244 125.75C671.41 125.75 673.31 126.25 674.944 127.25C676.877 128.417 677.844 130.433 677.844 133.3C677.844 138.033 675.227 141.467 669.994 143.6C675.327 144.533 677.994 147.517 677.994 152.55C677.994 155.817 676.644 158.417 673.944 160.35C671.244 162.283 668.21 163.25 664.844 163.25C661.51 163.25 658.827 162.55 656.794 161.15C654.827 162.583 652.777 163.3 650.644 163.3ZM666.444 151.45C666.444 149.883 665.977 148.733 665.044 148C664.144 147.267 662.927 146.9 661.394 146.9C659.86 146.9 658.144 147.217 656.244 147.85C655.71 150.683 655.444 153.1 655.444 155.1C657.077 155.867 658.777 156.25 660.544 156.25C662.31 156.25 663.727 155.833 664.794 155C665.894 154.167 666.444 152.983 666.444 151.45ZM663.194 132.35C661.894 132.35 660.494 132.6 658.994 133.1C658.794 134.4 658.177 137.733 657.144 143.1C659.91 142.9 662.26 142.233 664.194 141.1C666.127 139.933 667.094 138.267 667.094 136.1C667.094 133.6 665.794 132.35 663.194 132.35ZM700.835 155.05L699.085 150C697.352 150 695.602 149.733 693.835 149.2C693.469 151.333 693.285 152.867 693.285 153.8C693.285 157.033 693.785 159.45 694.785 161.05C692.785 162.55 690.702 163.3 688.535 163.3C686.369 163.3 684.819 162.683 683.885 161.45C682.952 160.183 682.485 158.317 682.485 155.85C682.485 153.35 683.535 146.3 685.635 134.7L682.985 129.35C686.719 126.95 690.152 125.75 693.285 125.75C695.685 125.75 697.535 126.25 698.835 127.25C701.335 126.25 703.585 125.75 705.585 125.75C708.652 125.75 711.085 126.783 712.885 128.85C714.685 130.917 715.585 133.4 715.585 136.3C715.585 138.467 715.035 140.567 713.935 142.6C712.835 144.6 711.219 146.233 709.085 147.5C710.219 150.733 711.485 153.517 712.885 155.85C714.319 158.183 715.735 159.733 717.135 160.5C716.435 161.233 715.352 161.867 713.885 162.4C712.452 162.967 711.152 163.25 709.985 163.25C707.719 163.25 705.902 162.683 704.535 161.55C703.169 160.383 701.935 158.217 700.835 155.05ZM696.035 143.75C698.702 143.75 700.769 143.067 702.235 141.7C703.735 140.333 704.485 138.867 704.485 137.3C704.485 135.733 704.052 134.483 703.185 133.55C702.319 132.617 701.085 132.15 699.485 132.15C698.619 132.15 697.752 132.267 696.885 132.5C695.819 138.867 695.152 142.6 694.885 143.7C695.119 143.733 695.502 143.75 696.035 143.75ZM747.905 133.1L747.505 145C747.505 149.1 747.839 152.55 748.505 155.35C749.205 158.15 750.489 160.083 752.355 161.15C750.055 162.583 747.722 163.3 745.355 163.3C741.189 163.3 738.622 159.933 737.655 153.2H727.455C726.822 155.367 726.505 157.033 726.505 158.2C726.505 159.333 726.639 160.25 726.905 160.95C724.439 162.517 722.239 163.3 720.305 163.3C717.339 163.3 715.855 161.5 715.855 157.9C715.855 156.1 716.405 153.833 717.505 151.1C718.639 148.367 720.122 145.233 721.955 141.7C723.822 138.167 725.005 135.833 725.505 134.7C725.139 132.9 724.722 131.133 724.255 129.4C725.989 128.2 727.655 127.3 729.255 126.7C730.889 126.067 732.639 125.75 734.505 125.75C736.405 125.75 737.722 126.167 738.455 127C740.355 126.167 741.922 125.75 743.155 125.75C744.389 125.75 745.305 125.95 745.905 126.35C746.505 126.75 746.939 127.333 747.205 128.1C747.672 129.433 747.905 131.1 747.905 133.1ZM737.855 134.25H736.255C733.255 140.05 731.022 144.617 729.555 147.95H737.305C737.305 144.317 737.489 139.75 737.855 134.25ZM754.081 146.65C754.081 144.317 754.581 141.95 755.581 139.55C756.581 137.117 757.998 134.867 759.831 132.8C761.664 130.733 764.048 129.05 766.981 127.75C769.948 126.417 772.998 125.75 776.131 125.75C779.298 125.75 781.764 126.333 783.531 127.5C785.331 128.667 786.231 130.283 786.231 132.35C786.231 134.417 785.548 136.033 784.181 137.2C782.848 138.333 781.314 138.9 779.581 138.9C777.848 138.9 776.281 138.533 774.881 137.8C773.514 137.033 772.414 135.95 771.581 134.55C769.781 135.417 768.231 137.117 766.931 139.65C765.631 142.183 764.981 144.733 764.981 147.3C764.981 149.833 765.398 151.85 766.231 153.35C767.064 154.817 768.248 155.55 769.781 155.55C771.314 155.55 772.664 154.767 773.831 153.2C775.031 151.633 775.631 149.75 775.631 147.55C778.998 147.55 781.398 147.817 782.831 148.35C784.298 148.883 785.031 150.033 785.031 151.8C785.031 154.567 783.531 157.167 780.531 159.6C777.531 162.033 773.764 163.25 769.231 163.25C764.698 163.25 761.031 161.85 758.231 159.05C755.464 156.25 754.081 152.117 754.081 146.65ZM795.462 163.3C793.495 163.3 792.045 162.683 791.112 161.45C790.179 160.183 789.712 158.317 789.712 155.85C789.712 153.35 790.762 146.3 792.862 134.7L790.212 129.35C793.979 126.917 797.412 125.7 800.512 125.7C802.479 125.7 803.695 126.633 804.162 128.5C807.929 128.4 812.629 127.55 818.262 125.95C818.529 127.05 818.662 128.133 818.662 129.2C818.662 131.9 817.762 133.933 815.962 135.3C814.195 136.667 811.912 137.35 809.112 137.35C807.212 137.35 805.345 136.95 803.512 136.15C803.245 137.65 802.779 140.1 802.112 143.5C803.345 143.733 804.395 143.85 805.262 143.85C806.629 143.583 808.129 143.2 809.762 142.7C809.929 143.267 810.012 144.2 810.012 145.5C810.012 146.767 809.495 147.783 808.462 148.55C807.429 149.317 806.262 149.7 804.962 149.7C803.695 149.7 802.395 149.55 801.062 149.25C800.695 151.35 800.512 153.333 800.512 155.2H808.612C811.145 154.833 813.695 154.183 816.262 153.25C816.462 153.85 816.562 154.667 816.562 155.7C816.562 157.667 815.979 159.417 814.812 160.95C813.679 162.483 812.095 163.25 810.062 163.25C808.995 163.25 807.429 163.033 805.362 162.6C803.329 162.2 801.812 161.95 800.812 161.85C799.212 162.817 797.429 163.3 795.462 163.3ZM839.019 155.05L837.269 150C835.536 150 833.786 149.733 832.019 149.2C831.652 151.333 831.469 152.867 831.469 153.8C831.469 157.033 831.969 159.45 832.969 161.05C830.969 162.55 828.886 163.3 826.719 163.3C824.552 163.3 823.002 162.683 822.069 161.45C821.136 160.183 820.669 158.317 820.669 155.85C820.669 153.35 821.719 146.3 823.819 134.7L821.169 129.35C824.902 126.95 828.336 125.75 831.469 125.75C833.869 125.75 835.719 126.25 837.019 127.25C839.519 126.25 841.769 125.75 843.769 125.75C846.836 125.75 849.269 126.783 851.069 128.85C852.869 130.917 853.769 133.4 853.769 136.3C853.769 138.467 853.219 140.567 852.119 142.6C851.019 144.6 849.402 146.233 847.269 147.5C848.402 150.733 849.669 153.517 851.069 155.85C852.502 158.183 853.919 159.733 855.319 160.5C854.619 161.233 853.536 161.867 852.069 162.4C850.636 162.967 849.336 163.25 848.169 163.25C845.902 163.25 844.086 162.683 842.719 161.55C841.352 160.383 840.119 158.217 839.019 155.05ZM834.219 143.75C836.886 143.75 838.952 143.067 840.419 141.7C841.919 140.333 842.669 138.867 842.669 137.3C842.669 135.733 842.236 134.483 841.369 133.55C840.502 132.617 839.269 132.15 837.669 132.15C836.802 132.15 835.936 132.267 835.069 132.5C834.002 138.867 833.336 142.6 833.069 143.7C833.302 143.733 833.686 143.75 834.219 143.75ZM855.589 146.7C855.589 140.367 857.356 135.3 860.889 131.5C864.422 127.667 869.256 125.75 875.389 125.75C877.356 125.75 878.756 126.15 879.589 126.95C880.456 127.717 880.889 128.917 880.889 130.55C880.889 130.783 880.856 131.233 880.789 131.9C882.022 130.9 883.389 130.4 884.889 130.4C886.922 130.4 888.656 131.317 890.089 133.15C891.556 134.95 892.289 137.567 892.289 141C892.289 144.433 891.739 147.583 890.639 150.45C889.539 153.317 888.072 155.667 886.239 157.5C884.439 159.333 882.372 160.75 880.039 161.75C877.739 162.75 875.356 163.25 872.889 163.25C867.556 163.25 863.339 161.733 860.239 158.7C857.139 155.633 855.589 151.633 855.589 146.7ZM880.539 149.05C878.406 146.45 877.339 143.65 877.339 140.65C877.339 137.65 878.006 135.233 879.339 133.4C878.739 133.3 878.139 133.25 877.539 133.25C875.172 133.25 873.122 133.967 871.389 135.4C868.122 138.067 866.489 141.767 866.489 146.5C866.489 149.2 867.089 151.45 868.289 153.25C869.489 155.05 871.156 155.95 873.289 155.95C874.922 155.95 876.406 155.317 877.739 154.05C879.106 152.75 880.039 151.083 880.539 149.05Z" fill="url(#paint1_linear_1_3)"/>
</g>
<rect x="4.5" y="0.5" width="1279" height="324" stroke="black" shape-rendering="crispEdges"/>
</g>
<defs>
<filter id="filter0_d_1_3" x="0" y="0" width="1288" height="333" filterUnits="userSpaceOnUse" color-interpolation-filters="sRGB">
<feFlood flood-opacity="0" result="BackgroundImageFix"/>
<feColorMatrix in="SourceAlpha" type="matrix" values="0 0 0 0 0 0 0 0 0 0 0 0 0 0 0 0 0 0 127 0" result="hardAlpha"/>
<feOffset dy="4"/>
<feGaussianBlur stdDeviation="2"/>
<feComposite in2="hardAlpha" operator="out"/>
<feColorMatrix type="matrix" values="0 0 0 0 0 0 0 0 0 0 0 0 0 0 0 0 0 0 0.25 0"/>
<feBlend mode="normal" in2="BackgroundImageFix" result="effect1_dropShadow_1_3"/>
<feBlend mode="normal" in="SourceGraphic" in2="effect1_dropShadow_1_3" result="shape"/>
</filter>
<filter id="filter1_d_1_3" x="394.94" y="123" width="501.348" height="58.75" filterUnits="userSpaceOnUse" color-interpolation-filters="sRGB">
<feFlood flood-opacity="0" result="BackgroundImageFix"/>
<feColorMatrix in="SourceAlpha" type="matrix" values="0 0 0 0 0 0 0 0 0 0 0 0 0 0 0 0 0 0 127 0" result="hardAlpha"/>
<feOffset dy="4"/>
<feGaussianBlur stdDeviation="2"/>
<feComposite in2="hardAlpha" operator="out"/>
<feColorMatrix type="matrix" values="0 0 0 0 0 0 0 0 0 0 0 0 0 0 0 0 0 0 0.25 0"/>
<feBlend mode="normal" in2="BackgroundImageFix" result="effect1_dropShadow_1_3"/>
<feBlend mode="normal" in="SourceGraphic" in2="effect1_dropShadow_1_3" result="shape"/>
</filter>
<linearGradient id="paint0_linear_1_3" x1="644" y1="0" x2="644" y2="325" gradientUnits="userSpaceOnUse">
<stop stop-color="#FF7A00"/>
<stop offset="1" stop-color="#3F1938"/>
</linearGradient>
<linearGradient id="paint1_linear_1_3" x1="644.5" y1="111" x2="644.5" y2="153" gradientUnits="userSpaceOnUse">
<stop stop-color="#D5751D"/>
<stop offset="1" stop-color="#731461"/>
</linearGradient>
</defs>
</svg>
