<svg width="1280" height="265" viewBox="0 0 1280 265" fill="none" xmlns="http://www.w3.org/2000/svg">
<g clip-path="url(#clip0_5_11)">
<rect width="1280" height="265" fill="white"/>
<rect width="1280" height="265" fill="#100146"/>
<rect width="1280" height="265" fill="url(#paint0_linear_5_11)" fill-opacity="0.2"/>
<g filter="url(#filter0_d_5_11)">
<path d="M251.475 140.05C251.275 141.25 251.175 142.167 251.175 142.8C251.175 146.033 251.675 148.45 252.675 150.05C250.675 151.55 248.592 152.3 246.425 152.3C244.258 152.3 242.708 151.683 241.775 150.45C240.842 149.183 240.375 147.317 240.375 144.85C240.375 142.35 241.425 135.3 243.525 123.7L240.875 118.35C244.642 115.917 248.075 114.7 251.175 114.7C252.042 114.7 252.992 114.867 254.025 115.2C255.058 115.5 255.792 115.85 256.225 116.25C258.692 115.283 260.975 114.8 263.075 114.8C266.208 114.8 268.675 115.9 270.475 118.1C272.308 120.267 273.225 122.9 273.225 126C273.225 129.733 271.875 133.067 269.175 136C267.875 137.433 266.125 138.583 263.925 139.45C261.725 140.317 259.475 140.75 257.175 140.75C254.908 140.75 253.008 140.517 251.475 140.05ZM252.425 134.35C252.892 134.45 253.375 134.5 253.875 134.5C256.008 134.5 257.908 133.75 259.575 132.25C261.242 130.75 262.075 128.9 262.075 126.7C262.075 125.167 261.625 123.867 260.725 122.8C259.858 121.733 258.625 121.2 257.025 121.2C256.358 121.2 255.592 121.333 254.725 121.6C254.058 126.167 253.292 130.417 252.425 134.35ZM289.815 150C288.248 150.567 286.682 150.85 285.115 150.85C283.548 150.85 282.232 150.383 281.165 149.45C280.098 148.517 279.482 147.25 279.315 145.65C279.148 144.05 278.998 141.733 278.865 138.7C278.732 135.633 278.598 133.467 278.465 132.2C278.032 127.967 276.698 124.95 274.465 123.15C276.032 121.717 277.998 121 280.365 121C281.665 121 282.798 121.35 283.765 122.05C284.732 122.717 285.498 123.617 286.065 124.75C286.665 125.85 287.148 127.283 287.515 129.05C288.082 131.983 288.365 135.95 288.365 140.95C288.365 142.183 288.315 143.633 288.215 145.3H291.115C294.548 136.033 296.265 129.717 296.265 126.35C296.265 125.217 296.015 124.15 295.515 123.15C297.848 121.717 299.882 121 301.615 121C304.848 121 306.465 122.867 306.465 126.6C306.465 129.567 305.098 134.783 302.365 142.25C301.865 143.617 301.582 144.417 301.515 144.65C297.282 156.717 291.265 162.75 283.465 162.75C281.098 162.75 279.148 162.233 277.615 161.2C276.082 160.2 275.315 158.867 275.315 157.2C275.315 155.567 275.932 153.85 277.165 152.05C278.765 154.317 280.765 155.45 283.165 155.45C284.532 155.45 285.798 155 286.965 154.1C288.165 153.2 289.115 151.833 289.815 150ZM311.33 132.95C311.097 132.017 310.98 131.15 310.98 130.35C310.98 128.717 311.464 127.483 312.43 126.65C313.397 125.817 314.647 125.4 316.18 125.4C316.18 123.667 315.73 121.783 314.83 119.75C316.464 118.55 317.947 117.65 319.28 117.05C320.647 116.417 322.08 116.1 323.58 116.1C325.08 116.1 326.114 116.383 326.68 116.95C327.28 117.483 327.58 118.317 327.58 119.45C327.58 120.583 327.347 122.35 326.88 124.75C328.214 124.55 329.564 124.267 330.93 123.9C331.164 124.6 331.28 125.5 331.28 126.6C331.28 127.7 330.847 128.733 329.98 129.7C329.147 130.633 327.914 131.1 326.28 131.1H325.53C324.33 136.533 323.73 140.717 323.73 143.65C323.73 146.583 324.247 148.633 325.28 149.8C323.414 151.433 321.43 152.25 319.33 152.25C317.23 152.25 315.714 151.633 314.78 150.4C313.88 149.133 313.43 147.183 313.43 144.55C313.43 142.95 314.014 138.75 315.18 131.95C313.847 132.183 312.564 132.517 311.33 132.95ZM362.11 121C366.143 121 368.16 123.017 368.16 127.05C368.16 128.783 367.66 131.717 366.66 135.85C365.693 139.983 365.21 143.1 365.21 145.2C365.21 147.3 365.56 148.833 366.26 149.8C364.493 151.433 362.626 152.25 360.66 152.25C356.826 152.25 354.91 150.183 354.91 146.05C354.91 144.517 355.41 141.917 356.41 138.25C357.41 134.583 357.91 132.2 357.91 131.1C357.91 129.6 357.343 128.85 356.21 128.85C355.276 128.85 354.21 129.267 353.01 130.1C351.81 130.9 350.643 132 349.51 133.4C348.41 134.767 347.476 136.517 346.71 138.65C345.943 140.75 345.56 142.9 345.56 145.1C345.56 147.267 345.91 148.833 346.61 149.8C344.843 151.433 342.976 152.25 341.01 152.25C337.176 152.25 335.26 150.183 335.26 146.05C335.26 143.583 335.926 138.583 337.26 131.05C338.393 124.417 339.043 120.7 339.21 119.9L336.41 115.9C340.576 113.467 343.86 112.25 346.26 112.25C347.626 112.25 348.593 112.533 349.16 113.1C349.726 113.633 350.01 114.533 350.01 115.8C350.01 118.2 349.776 120.817 349.31 123.65C348.843 126.483 348.41 128.567 348.01 129.9L348.51 130.15C352.076 124.05 356.61 121 362.11 121ZM397.332 124.8C399.198 124.8 400.798 125.55 402.132 127.05C403.498 128.55 404.182 130.733 404.182 133.6C404.182 136.433 403.682 139.067 402.682 141.5C401.682 143.9 400.365 145.867 398.732 147.4C397.098 148.933 395.248 150.133 393.182 151C391.115 151.833 388.998 152.25 386.832 152.25C382.465 152.25 379.015 151.05 376.482 148.65C373.948 146.25 372.682 143.067 372.682 139.1C372.682 133.733 374.398 129.383 377.832 126.05C381.298 122.683 385.698 121 391.032 121C392.232 121 393.432 121.133 394.632 121.4C394.998 122.5 395.198 123.75 395.232 125.15C395.932 124.917 396.632 124.8 397.332 124.8ZM391.182 131.75C391.182 130.817 391.398 129.767 391.832 128.6C392.298 127.433 393.032 126.5 394.032 125.8C389.632 126.733 386.598 128.517 384.932 131.15C383.498 133.417 382.782 135.75 382.782 138.15C382.782 140.55 383.265 142.483 384.232 143.95C385.232 145.383 386.498 146.1 388.032 146.1C391.432 146.1 393.832 143.883 395.232 139.45C392.532 137.783 391.182 135.217 391.182 131.75ZM414.674 152.25C412.707 152.25 411.257 151.733 410.324 150.7C409.39 149.667 408.924 148.3 408.924 146.6C408.924 144.9 409.257 142.133 409.924 138.3C410.624 134.467 411.34 130.967 412.074 127.8L409.474 123.8C412.774 121.933 415.824 121 418.624 121C421.424 121 422.824 122.267 422.824 124.8C422.824 126.467 422.44 128.167 421.674 129.9L422.174 130.15C425.74 124.05 430.274 121 435.774 121C439.807 121 441.824 123.017 441.824 127.05C441.824 128.783 441.324 131.717 440.324 135.85C439.357 139.983 438.874 143.1 438.874 145.2C438.874 147.3 439.224 148.833 439.924 149.8C438.157 151.433 436.29 152.25 434.324 152.25C430.49 152.25 428.574 150.183 428.574 146.05C428.574 144.517 429.074 141.917 430.074 138.25C431.074 134.583 431.574 132.2 431.574 131.1C431.574 129.6 431.007 128.85 429.874 128.85C428.94 128.85 427.874 129.267 426.674 130.1C425.474 130.9 424.307 132 423.174 133.4C422.074 134.767 421.14 136.517 420.374 138.65C419.607 140.75 419.224 142.9 419.224 145.1C419.224 147.267 419.574 148.833 420.274 149.8C418.507 151.433 416.64 152.25 414.674 152.25ZM468.055 152.3C465.921 152.3 464.388 151.683 463.455 150.45C462.521 149.183 462.055 147.317 462.055 144.85C462.055 142.35 463.105 135.3 465.205 123.7L462.555 118.35C466.321 115.917 469.755 114.7 472.855 114.7C474.921 114.7 476.155 115.7 476.555 117.7C479.988 115.733 483.355 114.75 486.655 114.75C488.821 114.75 490.721 115.25 492.355 116.25C494.288 117.417 495.255 119.433 495.255 122.3C495.255 127.033 492.638 130.467 487.405 132.6C492.738 133.533 495.405 136.517 495.405 141.55C495.405 144.817 494.055 147.417 491.355 149.35C488.655 151.283 485.621 152.25 482.255 152.25C478.921 152.25 476.238 151.55 474.205 150.15C472.238 151.583 470.188 152.3 468.055 152.3ZM483.855 140.45C483.855 138.883 483.388 137.733 482.455 137C481.555 136.267 480.338 135.9 478.805 135.9C477.271 135.9 475.555 136.217 473.655 136.85C473.121 139.683 472.855 142.1 472.855 144.1C474.488 144.867 476.188 145.25 477.955 145.25C479.721 145.25 481.138 144.833 482.205 144C483.305 143.167 483.855 141.983 483.855 140.45ZM480.605 121.35C479.305 121.35 477.905 121.6 476.405 122.1C476.205 123.4 475.588 126.733 474.555 132.1C477.321 131.9 479.671 131.233 481.605 130.1C483.538 128.933 484.505 127.267 484.505 125.1C484.505 122.6 483.205 121.35 480.605 121.35ZM518.246 144.85L517.746 144.6C516.846 147 515.546 148.883 513.846 150.25C512.18 151.583 510.313 152.25 508.246 152.25C505.413 152.25 503.146 151.183 501.446 149.05C499.746 146.917 498.896 144.067 498.896 140.5C498.896 134.967 500.746 130.333 504.446 126.6C508.18 122.867 512.813 121 518.346 121C519.78 121 521.096 121.133 522.296 121.4C522.496 122.333 522.613 123.15 522.646 123.85C524.313 122.783 526.03 122.25 527.796 122.25C530.23 122.25 531.446 123.567 531.446 126.2C531.446 127.133 530.913 129.95 529.846 134.65C528.813 139.35 528.296 142.833 528.296 145.1C528.296 147.367 528.813 148.933 529.846 149.8C527.98 151.433 526.03 152.25 523.996 152.25C521.996 152.25 520.53 151.65 519.596 150.45C518.696 149.25 518.246 147.383 518.246 144.85ZM508.296 138.05C508.296 139.683 508.63 140.95 509.296 141.85C509.996 142.717 510.98 143.15 512.246 143.15C513.513 143.15 514.763 142.683 515.996 141.75C517.23 140.817 518.263 139.533 519.096 137.9C519.396 134.533 520.046 130.55 521.046 125.95C517.68 125.95 514.713 127.167 512.146 129.6C509.58 132.033 508.296 134.85 508.296 138.05ZM535.963 139.1C535.963 133.767 537.796 129.417 541.463 126.05C545.13 122.683 549.746 121 555.313 121C558.18 121 560.446 121.55 562.113 122.65C563.78 123.717 564.613 125.067 564.613 126.7C564.613 128.333 564.046 129.583 562.913 130.45C561.813 131.317 560.596 131.75 559.263 131.75C557.963 131.75 556.763 131.4 555.663 130.7C554.596 130 553.763 128.983 553.163 127.65C551.063 128.517 549.396 130.05 548.163 132.25C546.963 134.45 546.363 136.65 546.363 138.85C546.363 141.05 546.796 142.833 547.663 144.2C548.53 145.567 549.663 146.25 551.063 146.25C552.463 146.25 553.596 145.783 554.463 144.85C555.363 143.917 555.813 142.533 555.813 140.7C560.68 140.7 563.113 141.85 563.113 144.15C563.113 146.117 561.88 147.967 559.413 149.7C556.946 151.4 553.696 152.25 549.663 152.25C545.63 152.25 542.33 151.05 539.763 148.65C537.23 146.217 535.963 143.033 535.963 139.1ZM572.798 119.9L569.998 115.9C574.164 113.467 577.448 112.25 579.848 112.25C581.214 112.25 582.181 112.533 582.748 113.1C583.314 113.633 583.598 114.55 583.598 115.85C583.598 117.117 583.381 118.9 582.948 121.2C582.548 123.5 581.998 126.217 581.298 129.35C580.631 132.483 580.148 135 579.848 136.9L582.998 134.1C583.298 133.833 583.781 133.417 584.448 132.85C585.148 132.25 585.631 131.817 585.898 131.55C586.198 131.283 586.598 130.917 587.098 130.45C587.598 129.95 587.964 129.533 588.198 129.2C588.431 128.867 588.698 128.483 588.998 128.05C589.464 127.317 589.698 126.5 589.698 125.6C589.698 124.667 589.564 123.85 589.298 123.15C591.664 121.717 593.898 121 595.998 121C597.398 121 598.514 121.45 599.348 122.35C600.181 123.217 600.598 124.483 600.598 126.15C600.598 127.817 599.831 129.5 598.298 131.2C596.798 132.867 594.931 134.333 592.698 135.6C593.731 139.033 595.064 142.183 596.698 145.05C598.331 147.917 599.698 149.633 600.798 150.2C599.464 151.567 597.398 152.25 594.598 152.25C592.531 152.25 590.781 151.55 589.348 150.15C587.948 148.75 586.698 146.45 585.598 143.25L584.348 139.7L579.198 142.25C579.164 142.617 579.148 143.167 579.148 143.9C579.148 146.667 579.664 148.633 580.698 149.8C578.364 151.433 576.248 152.25 574.348 152.25C572.448 152.25 571.048 151.633 570.148 150.4C569.281 149.133 568.848 147.4 568.848 145.2C568.848 143 569.464 138.5 570.698 131.7C571.931 124.9 572.631 120.967 572.798 119.9ZM607.679 141.85C605.579 141.85 604.529 140.633 604.529 138.2C604.529 136.433 604.996 134.533 605.929 132.5C606.629 132.733 607.646 132.85 608.979 132.85C610.346 132.85 612.513 132.317 615.479 131.25C618.479 130.183 620.746 129.65 622.279 129.65C624.379 129.65 625.429 130.867 625.429 133.3C625.429 135.067 624.963 136.967 624.029 139C623.329 138.767 622.296 138.65 620.929 138.65C619.596 138.65 617.429 139.183 614.429 140.25C611.463 141.317 609.213 141.85 607.679 141.85ZM644.745 152.25C640.179 152.25 636.645 151.067 634.145 148.7C631.679 146.333 630.445 143.133 630.445 139.1C630.445 133.733 632.279 129.383 635.945 126.05C639.645 122.683 644.279 121 649.845 121C652.945 121 655.295 121.7 656.895 123.1C658.495 124.467 659.295 126.283 659.295 128.55C659.295 131.65 657.779 134.233 654.745 136.3C651.745 138.333 647.095 139.367 640.795 139.4C640.895 141.533 641.379 143.217 642.245 144.45C643.112 145.65 644.195 146.25 645.495 146.25C646.795 146.25 647.912 145.817 648.845 144.95C649.812 144.083 650.295 142.667 650.295 140.7C655.162 140.7 657.595 141.85 657.595 144.15C657.595 146.117 656.395 147.967 653.995 149.7C651.595 151.4 648.512 152.25 644.745 152.25ZM648.995 126.85C647.295 126.85 645.729 127.7 644.295 129.4C642.895 131.1 641.879 133.1 641.245 135.4C644.579 135.133 647.079 134.383 648.745 133.15C650.445 131.883 651.295 130.55 651.295 129.15C651.295 128.483 651.079 127.933 650.645 127.5C650.245 127.067 649.695 126.85 648.995 126.85ZM669.557 152.25C667.59 152.25 666.14 151.733 665.207 150.7C664.273 149.667 663.807 148.3 663.807 146.6C663.807 144.9 664.14 142.133 664.807 138.3C665.507 134.467 666.223 130.967 666.957 127.8L664.357 123.8C667.657 121.933 670.707 121 673.507 121C676.307 121 677.707 122.267 677.707 124.8C677.707 126.467 677.323 128.167 676.557 129.9L677.057 130.15C680.623 124.05 685.157 121 690.657 121C694.69 121 696.707 123.017 696.707 127.05C696.707 128.783 696.207 131.717 695.207 135.85C694.24 139.983 693.757 143.1 693.757 145.2C693.757 147.3 694.107 148.833 694.807 149.8C693.04 151.433 691.173 152.25 689.207 152.25C685.373 152.25 683.457 150.183 683.457 146.05C683.457 144.517 683.957 141.917 684.957 138.25C685.957 134.583 686.457 132.2 686.457 131.1C686.457 129.6 685.89 128.85 684.757 128.85C683.823 128.85 682.757 129.267 681.557 130.1C680.357 130.9 679.19 132 678.057 133.4C676.957 134.767 676.023 136.517 675.257 138.65C674.49 140.75 674.107 142.9 674.107 145.1C674.107 147.267 674.457 148.833 675.157 149.8C673.39 151.433 671.523 152.25 669.557 152.25ZM720.547 147.35L720.047 147.1C717.447 150.533 714.347 152.25 710.747 152.25C708.081 152.25 705.814 151.2 703.947 149.1C702.114 146.967 701.197 144.1 701.197 140.5C701.197 136.033 702.764 131.967 705.897 128.3C707.431 126.5 709.481 125.05 712.047 123.95C714.614 122.817 717.481 122.25 720.647 122.25C721.247 122.25 722.314 122.317 723.847 122.45C723.914 121.75 724.064 120.9 724.297 119.9L721.497 115.9C725.664 113.467 728.947 112.25 731.347 112.25C732.714 112.25 733.681 112.533 734.247 113.1C734.814 113.633 735.097 114.667 735.097 116.2C735.097 117.7 734.347 121.967 732.847 129C731.381 136.033 730.647 141.033 730.647 144C730.647 146.933 731.164 148.867 732.197 149.8C730.331 151.433 728.381 152.25 726.347 152.25C724.347 152.25 722.881 151.75 721.947 150.75C721.014 149.717 720.547 148.583 720.547 147.35ZM710.597 138.6C710.597 140.5 711.081 142 712.047 143.1C713.047 144.2 714.281 144.75 715.747 144.75C717.647 144.75 719.381 143.85 720.947 142.05C721.481 136.117 722.231 130.983 723.197 126.65C719.364 126.65 716.297 127.883 713.997 130.35C711.731 132.817 710.597 135.567 710.597 138.6ZM754.34 142.85C754.34 140.95 754.79 137.6 755.69 132.8C756.59 128 757.14 124.967 757.34 123.7L754.69 118.35C758.923 115.95 762.523 114.75 765.49 114.75C766.957 114.75 768.057 115.25 768.79 116.25C771.557 115.283 774.107 114.8 776.44 114.8C780.773 114.8 784.14 116.217 786.54 119.05C788.94 121.85 790.14 125.35 790.14 129.55C790.14 135.083 788.107 140.167 784.04 144.8C782.073 147.033 779.473 148.833 776.24 150.2C773.04 151.567 769.607 152.25 765.94 152.25C762.273 152.25 759.423 151.45 757.39 149.85C755.357 148.217 754.34 145.883 754.34 142.85ZM764.94 144.75C765.64 144.883 766.423 144.95 767.29 144.95C770.923 144.95 773.757 143.65 775.79 141.05C777.823 138.417 778.84 135.183 778.84 131.35C778.84 128.25 778.14 125.783 776.74 123.95C775.34 122.117 773.323 121.2 770.69 121.2C770.29 121.2 769.623 121.267 768.69 121.4C768.457 123.1 767.84 126.9 766.84 132.8C765.873 138.667 765.24 142.65 764.94 144.75ZM806.708 152.25C802.142 152.25 798.608 151.067 796.108 148.7C793.642 146.333 792.408 143.133 792.408 139.1C792.408 133.733 794.242 129.383 797.908 126.05C801.608 122.683 806.242 121 811.808 121C814.908 121 817.258 121.7 818.858 123.1C820.458 124.467 821.258 126.283 821.258 128.55C821.258 131.65 819.742 134.233 816.708 136.3C813.708 138.333 809.058 139.367 802.758 139.4C802.858 141.533 803.342 143.217 804.208 144.45C805.075 145.65 806.158 146.25 807.458 146.25C808.758 146.25 809.875 145.817 810.808 144.95C811.775 144.083 812.258 142.667 812.258 140.7C817.125 140.7 819.558 141.85 819.558 144.15C819.558 146.117 818.358 147.967 815.958 149.7C813.558 151.4 810.475 152.25 806.708 152.25ZM810.958 126.85C809.258 126.85 807.692 127.7 806.258 129.4C804.858 131.1 803.842 133.1 803.208 135.4C806.542 135.133 809.042 134.383 810.708 133.15C812.408 131.883 813.258 130.55 813.258 129.15C813.258 128.483 813.042 127.933 812.608 127.5C812.208 127.067 811.658 126.85 810.958 126.85ZM827.77 145.5C827.77 145.5 827.836 140.917 827.97 131.75C827.97 127.883 827.07 125.017 825.27 123.15C827.003 121.717 828.903 121 830.97 121C833.67 121 835.503 122.2 836.47 124.6C837.303 126.667 837.72 129.8 837.72 134C837.72 138.167 837.636 142.217 837.47 146.15H839.17C844.236 135.517 846.77 128.6 846.77 125.4C846.77 124.633 846.62 123.883 846.32 123.15C848.786 121.717 851.02 121 853.02 121C855.62 121 856.92 122.567 856.92 125.7C856.92 127.133 856.553 128.933 855.82 131.1C855.086 133.233 853.953 136 852.42 139.4C850.92 142.767 850.136 144.517 850.07 144.65L850.72 147.55C849.32 148.817 847.32 149.917 844.72 150.85C842.12 151.783 839.37 152.25 836.47 152.25C833.57 152.25 831.386 151.733 829.92 150.7C828.486 149.633 827.77 147.9 827.77 145.5ZM874.726 152.25C870.159 152.25 866.626 151.067 864.126 148.7C861.659 146.333 860.426 143.133 860.426 139.1C860.426 133.733 862.259 129.383 865.926 126.05C869.626 122.683 874.259 121 879.826 121C882.926 121 885.276 121.7 886.876 123.1C888.476 124.467 889.276 126.283 889.276 128.55C889.276 131.65 887.759 134.233 884.726 136.3C881.726 138.333 877.076 139.367 870.776 139.4C870.876 141.533 871.359 143.217 872.226 144.45C873.092 145.65 874.176 146.25 875.476 146.25C876.776 146.25 877.892 145.817 878.826 144.95C879.792 144.083 880.276 142.667 880.276 140.7C885.142 140.7 887.576 141.85 887.576 144.15C887.576 146.117 886.376 147.967 883.976 149.7C881.576 151.4 878.492 152.25 874.726 152.25ZM878.976 126.85C877.276 126.85 875.709 127.7 874.276 129.4C872.876 131.1 871.859 133.1 871.226 135.4C874.559 135.133 877.059 134.383 878.726 133.15C880.426 131.883 881.276 130.55 881.276 129.15C881.276 128.483 881.059 127.933 880.626 127.5C880.226 127.067 879.676 126.85 878.976 126.85ZM898.487 119.9L895.687 115.9C899.854 113.467 903.137 112.25 905.537 112.25C906.904 112.25 907.87 112.533 908.437 113.1C909.004 113.633 909.287 114.667 909.287 116.2C909.287 117.7 908.537 121.967 907.037 129C905.57 136.033 904.837 140.967 904.837 143.8C904.837 146.633 905.354 148.633 906.387 149.8C904.054 151.433 901.937 152.25 900.037 152.25C898.137 152.25 896.737 151.633 895.837 150.4C894.97 149.133 894.537 147.4 894.537 145.2C894.537 143 895.154 138.5 896.387 131.7C897.62 124.9 898.32 120.967 898.487 119.9ZM937.175 124.8C939.042 124.8 940.642 125.55 941.975 127.05C943.342 128.55 944.025 130.733 944.025 133.6C944.025 136.433 943.525 139.067 942.525 141.5C941.525 143.9 940.209 145.867 938.575 147.4C936.942 148.933 935.092 150.133 933.025 151C930.959 151.833 928.842 152.25 926.675 152.25C922.309 152.25 918.859 151.05 916.325 148.65C913.792 146.25 912.525 143.067 912.525 139.1C912.525 133.733 914.242 129.383 917.675 126.05C921.142 122.683 925.542 121 930.875 121C932.075 121 933.275 121.133 934.475 121.4C934.842 122.5 935.042 123.75 935.075 125.15C935.775 124.917 936.475 124.8 937.175 124.8ZM931.025 131.75C931.025 130.817 931.242 129.767 931.675 128.6C932.142 127.433 932.875 126.5 933.875 125.8C929.475 126.733 926.442 128.517 924.775 131.15C923.342 133.417 922.625 135.75 922.625 138.15C922.625 140.55 923.109 142.483 924.075 143.95C925.075 145.383 926.342 146.1 927.875 146.1C931.275 146.1 933.675 143.883 935.075 139.45C932.375 137.783 931.025 135.217 931.025 131.75ZM954.318 160.95C952.251 160.95 950.801 160.433 949.968 159.4C949.168 158.4 948.768 156.933 948.768 155C948.768 153.1 949.168 149.25 949.968 143.45C950.801 137.65 951.601 132.7 952.368 128.6L949.568 124.6C951.634 123.4 953.418 122.5 954.918 121.9C956.418 121.267 957.901 120.95 959.368 120.95C961.768 120.95 962.968 122.533 962.968 125.7C962.968 126.133 962.901 127.017 962.768 128.35L963.268 128.6C964.234 126.2 965.634 124.333 967.468 123C969.301 121.633 971.451 120.95 973.918 120.95C976.418 120.95 978.401 122.083 979.868 124.35C981.334 126.583 982.068 129.367 982.068 132.7C982.068 137.167 980.501 141.233 977.368 144.9C975.834 146.7 973.784 148.167 971.218 149.3C968.651 150.4 965.784 150.95 962.618 150.95C961.651 150.95 960.384 150.867 958.818 150.7C958.718 151.867 958.668 152.95 958.668 153.95C958.668 156.083 959.184 157.6 960.218 158.5C958.351 160.133 956.384 160.95 954.318 160.95ZM960.868 140.25L959.718 146.05C963.751 145.95 966.968 144.633 969.368 142.1C971.801 139.533 973.018 136.733 973.018 133.7C973.018 132.133 972.701 130.883 972.068 129.95C971.468 128.983 970.584 128.5 969.418 128.5C965.284 128.5 962.434 132.417 960.868 140.25ZM1000.85 152.25C996.282 152.25 992.749 151.067 990.249 148.7C987.782 146.333 986.549 143.133 986.549 139.1C986.549 133.733 988.382 129.383 992.049 126.05C995.749 122.683 1000.38 121 1005.95 121C1009.05 121 1011.4 121.7 1013 123.1C1014.6 124.467 1015.4 126.283 1015.4 128.55C1015.4 131.65 1013.88 134.233 1010.85 136.3C1007.85 138.333 1003.2 139.367 996.899 139.4C996.999 141.533 997.482 143.217 998.349 144.45C999.215 145.65 1000.3 146.25 1001.6 146.25C1002.9 146.25 1004.02 145.817 1004.95 144.95C1005.92 144.083 1006.4 142.667 1006.4 140.7C1011.27 140.7 1013.7 141.85 1013.7 144.15C1013.7 146.117 1012.5 147.967 1010.1 149.7C1007.7 151.4 1004.62 152.25 1000.85 152.25ZM1005.1 126.85C1003.4 126.85 1001.83 127.7 1000.4 129.4C998.999 131.1 997.982 133.1 997.349 135.4C1000.68 135.133 1003.18 134.383 1004.85 133.15C1006.55 131.883 1007.4 130.55 1007.4 129.15C1007.4 128.483 1007.18 127.933 1006.75 127.5C1006.35 127.067 1005.8 126.85 1005.1 126.85ZM1019.91 146.05C1019.91 144.717 1020.24 142.133 1020.91 138.3C1021.61 134.467 1022.33 130.967 1023.06 127.8L1020.46 123.8C1024.63 121.933 1027.54 121 1029.21 121C1030.91 121 1031.76 122.067 1031.76 124.2C1031.76 125.367 1031.21 127.8 1030.11 131.5L1030.61 131.75C1033.01 124.583 1035.99 121 1039.56 121C1041.19 121 1042.44 121.5 1043.31 122.5C1044.18 123.5 1044.61 124.617 1044.61 125.85C1044.61 127.683 1043.93 129.25 1042.56 130.55C1041.19 131.85 1039.14 132.5 1036.41 132.5C1032.28 132.5 1030.21 136.75 1030.21 145.25C1030.21 147.317 1030.56 148.833 1031.26 149.8C1029.19 151.433 1027.29 152.25 1025.56 152.25C1021.79 152.25 1019.91 150.183 1019.91 146.05Z" fill="#721461"/>
</g>
</g>
<defs>
<filter id="filter0_d_5_11" x="236.375" y="112.25" width="812.235" height="58.5" filterUnits="userSpaceOnUse" color-interpolation-filters="sRGB">
<feFlood flood-opacity="0" result="BackgroundImageFix"/>
<feColorMatrix in="SourceAlpha" type="matrix" values="0 0 0 0 0 0 0 0 0 0 0 0 0 0 0 0 0 0 127 0" result="hardAlpha"/>
<feOffset dy="4"/>
<feGaussianBlur stdDeviation="2"/>
<feComposite in2="hardAlpha" operator="out"/>
<feColorMatrix type="matrix" values="0 0 0 0 0 0 0 0 0 0 0 0 0 0 0 0 0 0 0.25 0"/>
<feBlend mode="normal" in2="BackgroundImageFix" result="effect1_dropShadow_5_11"/>
<feBlend mode="normal" in="SourceGraphic" in2="effect1_dropShadow_5_11" result="shape"/>
</filter>
<linearGradient id="paint0_linear_5_11" x1="640" y1="0" x2="640" y2="265" gradientUnits="userSpaceOnUse">
<stop stop-color="#B66214"/>
<stop offset="1" stop-color="#3F1938" stop-opacity="0"/>
</linearGradient>
<clipPath id="clip0_5_11">
<rect width="1280" height="265" fill="white"/>
</clipPath>
</defs>
</svg>
